PathFileType	4	(X/Y/Z)	0_coords_data.trc
DataRate	CameraRate	NumFrames	NumMarkers	Units	OrigDataRate	OrigDataStartFrame	OrigNumFrames
30.0	30.0	9	21	m	30.0	59	78
Frame#	Time	THUMB_TIP	THUMB_IP	THUMB_MCP	THUMB_CMC	INDEX_TIP	INDEX_DIP	INDEX_PIP	INDEX_MCP	MIDDLE_TIP	MIDDLE_DIP	MIDDLE_PIP	MIDDLE_MCP	RING_TIP	RING_DIP	RING_PIP	RING_MCP	PINKY_TIP	PINKY_DIP	PINKY_PIP	PINKY_MCP	WRIST
X1	Y1	Z1	X2	Y2	Z2	X3	Y3	Z3	X4	Y4	Z4	X5	Y5	Z5	X6	Y6	Z6	X7	Y7	Z7	X8	Y8	Z8	X9	Y9	Z9	X10	Y10	Z10	X11	Y11	Z11	X12	Y12	Z12	X13	Y13	Z13	X14	Y14	Z14	X15	Y15	Z15	X16	Y16	Z16	X17	Y17	Z17	X18	Y18	Z18	X19	Y19	Z19	X20	Y20	Z20	X21	Y21	Z21
58	1.9333333333333333	-0.008746479988098145	-0.13408700561523437	0.98997998046875	-0.00860988998413086	-0.10777899932861328	1.0018699951171874	-0.021643299102783203	-0.08926339721679688	1.0258900146484375	-0.02474130058288574	-0.05242660140991211	1.03831005859375	-0.00533499002456665	-0.10167800140380859	0.8990969848632813	-0.015119799613952637	-0.09505780029296874	0.9210650024414062	-0.024111900329589844	-0.08808370208740235	0.9436690063476563	-0.03783990097045899	-0.07543659973144531	0.9796339721679688	-0.0009827029705047601	-0.0656760025024414	0.8769240112304687	-0.008176400184631347	-0.06274449920654297	0.9028079833984375	-0.0187150993347168	-0.05911240005493164	0.9315399780273438	-0.036119998931884764	-0.05155820083618164	0.969822998046875	0.0038579199314117433	-0.031132699966430664	0.8768629760742187	-0.005585730075836182	-0.02978730010986328	0.9013800048828124	-0.017808900833129884	-0.028908599853515626	0.92885498046875	-0.02784160041809082	-0.028929800033569337	0.968344970703125	0.012715100288391113	0.002559809923171997	0.9074829711914062	-0.000193817004561424	0.0026858499050140382	0.924364013671875	-0.01246280002593994	0.000945694029331207	0.9419669799804687	-0.02064520072937012	-0.006480810165405274	0.9719349975585938	-0.049890701293945315	-0.019290399551391602	1.0568599853515626
59	1.9666666666666666	-0.011389599800109864	-0.13513900756835937	0.9920170288085938	-0.01019909954071045	-0.10854799652099609	1.0034400024414063	-0.022582599639892578	-0.08952960205078125	1.02675	-0.025514699935913085	-0.05256869888305664	1.0391400146484375	-0.005012239933013916	-0.103197998046875	0.9002960205078125	-0.014515600204467773	-0.09644200134277343	0.9219119873046875	-0.023529899597167968	-0.089095703125	0.9444970092773437	-0.037572898864746095	-0.07591259765625	0.9802570190429688	-0.0006836529970169061	-0.06712200164794922	0.877572998046875	-0.007868720054626464	-0.06396580123901367	0.9033629760742188	-0.01839940071105957	-0.06004169845581055	0.9320789794921875	-0.03537939834594726	-0.051974498748779296	0.970677001953125	0.003515150070190429	-0.032622699737548826	0.8768989868164062	-0.005614389896392822	-0.03107040023803711	0.9020079956054687	-0.017539699554443358	-0.03001650047302246	0.9290679931640625	-0.027639799118041992	-0.02954640007019043	0.96860302734375	0.012114299774169921	0.001946179986000061	0.9068870239257812	-0.00044864299893379204	0.0019187599420547481	0.9242039794921875	-0.012383199691772461	0.00011890500038862201	0.9419829711914063	-0.020728599548339843	-0.007028719902038574	0.9720689697265625	-0.05041659927368164	-0.019173099517822267	1.0569300537109374
60	2.0	-0.013720199584960938	-0.13638499450683594	0.993947998046875	-0.011531800270080566	-0.10973200225830078	1.0046400146484376	-0.02364649963378906	-0.08996949768066406	1.0277099609375	-0.025925199508666993	-0.05269010162353516	1.0397099609375	-0.0042174701690673826	-0.10437999725341797	0.9012730102539063	-0.01392039966583252	-0.09746109771728516	0.9228939819335937	-0.022850000381469726	-0.08996800231933594	0.9452650146484375	-0.03702170181274414	-0.07643920135498047	0.9809600219726563	-0.000587257981300354	-0.06749230194091797	0.877677978515625	-0.007536250114440918	-0.06439939880371094	0.9037620239257812	-0.01781010055541992	-0.060517101287841796	0.9325440063476562	-0.03448559951782226	-0.052589599609375	0.970947998046875	0.003785670042037964	-0.03282080078125	0.877208984375	-0.004937849998474121	-0.03142490005493164	0.9021229858398437	-0.016492399215698242	-0.030421199798583983	0.9297570190429687	-0.026618099212646483	-0.0300846004486084	0.96902197265625	0.012875300407409668	0.0019071999788284302	0.9072130126953125	0.00041835299134254406	0.001674690008163452	0.9246170043945312	-0.011445099830627442	-0.00030339899659156803	0.9424580078125	-0.01985569953918457	-0.007684229850769043	0.9721439819335937	-0.05082120132446289	-0.019135799407958985	1.057199951171875
61	2.033333333333333	-0.015140700340270995	-0.13726300048828124	0.9964550170898437	-0.012072799682617187	-0.1104550018310547	1.00625	-0.023743499755859376	-0.09019429779052734	1.02881005859375	-0.025893299102783204	-0.05278229904174805	1.0403499755859376	-0.004150330066680908	-0.10623400115966797	0.9025180053710937	-0.013619600296020508	-0.09894309997558594	0.9240540161132812	-0.02246299934387207	-0.0910531005859375	0.9464569702148438	-0.036480899810791015	-0.07711139678955078	0.9818140258789062	-0.0007680090069770811	-0.06935669708251953	0.8782880249023437	-0.007495289802551269	-0.06597869873046874	0.9042960205078125	-0.017510200500488283	-0.06179579925537109	0.9331510009765625	-0.034035400390625	-0.05351179885864258	0.97147998046875	0.002669800043106079	-0.03457049942016602	0.876802001953125	-0.005484139919281006	-0.03292150115966797	0.9020560302734375	-0.016418899536132812	-0.03171380043029785	0.9298729858398438	-0.026305099487304688	-0.030914100646972656	0.9694180297851562	0.011822500228881837	0.001490090012550354	0.9065469970703125	-0.000217629000544548	0.000977393984794616	0.9242039794921875	-0.0118439998626709	-0.0010585099458694448	0.9422160034179687	-0.01980389976501465	-0.008292019844055176	0.9722219848632813	-0.050914798736572266	-0.019047800064086913	1.057550048828125
62	2.066666666666667	-0.01592840003967285	-0.13791900634765625	0.9976710205078125	-0.012455599784851074	-0.11093699645996094	1.0071500244140625	-0.0238656005859375	-0.09044129943847656	1.02931005859375	-0.0259783992767334	-0.052920101165771484	1.040699951171875	-0.002937439918518066	-0.10705899810791016	0.903791015625	-0.012572299957275391	-0.09992379760742187	0.9247630004882812	-0.021756900787353515	-0.09182890319824219	0.947197998046875	-0.03632279968261719	-0.0776511993408203	0.9824920043945312	-0.00015475699305534302	-0.07072920227050782	0.8790579833984375	-0.006907090187072754	-0.06713020324707031	0.9048930053710937	-0.017123100280761718	-0.06270920181274414	0.9335980224609375	-0.033813800811767575	-0.05407300186157227	0.9719329833984375	0.002700880050659179	-0.035816898345947264	0.8770079956054687	-0.0055331501960754394	-0.034051200866699216	0.902239990234375	-0.01638159942626953	-0.03263290023803711	0.9302109985351562	-0.026421899795532226	-0.0314768009185791	0.9695139770507812	0.010982199668884278	0.0008883370161056511	0.906218994140625	-0.0009345849752426141	0.00036820599436759903	0.9241790161132812	-0.012484100341796875	-0.001622709989547729	0.9422990112304688	-0.020200199127197265	-0.008702199935913086	0.9722919921875	-0.05123889923095703	-0.019150999069213866	1.0578699951171875
63	2.1	-0.017405300140380858	-0.1385449981689453	0.9982620239257812	-0.013476699829101562	-0.1114219970703125	1.0076699829101563	-0.024397499084472658	-0.09060109710693359	1.0294599609375	-0.026371999740600584	-0.05303609848022461	1.040800048828125	-0.002342010021209717	-0.10749600219726563	0.9040150146484375	-0.012118200302124023	-0.1002509994506836	0.9251380004882812	-0.021432500839233398	-0.0921531982421875	0.9475	-0.03610300064086914	-0.07799099731445312	0.9823670043945313	0.0005916609764099119	-0.07088710021972656	0.8791959838867187	-0.006500710010528565	-0.06735060119628906	0.9050819702148437	-0.016904499053955076	-0.06289360046386719	0.9339459838867188	-0.03351039886474609	-0.05438190078735351	0.9719530029296874	0.003432729959487915	-0.036126598358154294	0.8772260131835937	-0.004924139976501465	-0.034342300415039065	0.9023359985351562	-0.01599209976196289	-0.03297040176391602	0.9303489990234375	-0.026128799438476562	-0.0317996997833252	0.9695009765625	0.011668100357055664	0.000547441005706787	0.9064240112304688	-0.000361077010631561	6.1661198735237e-05	0.9243519897460938	-0.012097100257873535	-0.001914369940757751	0.9423469848632813	-0.01997019958496094	-0.009058779716491699	0.9720349731445312	-0.051467201232910154	-0.01920759963989258	1.05775
64	2.1333333333333333	-0.01852389907836914	-0.1389649963378906	0.9988800048828125	-0.014295599937438964	-0.111802001953125	1.0080399780273437	-0.025041000366210937	-0.09074099731445312	1.029699951171875	-0.026700899124145507	-0.05308140182495117	1.0408199462890626	-0.002253530025482177	-0.10847200012207031	0.9045430297851562	-0.012152199745178222	-0.10100499725341797	0.9255989990234375	-0.021603900909423827	-0.09272429656982421	0.9478720092773437	-0.03645199966430664	-0.07826200103759766	0.9824299926757812	0.000745562970638275	-0.07205809783935548	0.8794660034179688	-0.0063749098777771	-0.06828749847412109	0.905260009765625	-0.016815399169921873	-0.06365530014038086	0.9337150268554687	-0.033813800811767575	-0.05478680038452149	0.9716619873046874	0.00378656005859375	-0.03733800125122071	0.877291015625	-0.0046586599349975584	-0.03532369995117188	0.9023300170898437	-0.01592459964752197	-0.03373300170898438	0.9298099975585937	-0.026236600875854492	-0.032156299591064454	0.9693389892578125	0.01193690013885498	-0.000116123996675014	0.9062130126953125	-0.00020270599424839002	-0.0005134909749031061	0.9241069946289062	-0.011846400260925294	-0.00241742992401123	0.9421890258789063	-0.019909900665283205	-0.00936935043334961	0.9717849731445313	-0.05161460113525391	-0.019073799133300783	1.057449951171875
65	2.1666666666666665	-0.018575300216674806	-0.13891499328613283	0.998301025390625	-0.014347299575805664	-0.11172899627685547	1.0075900268554687	-0.025201400756835936	-0.09085600280761719	1.0293900146484376	-0.026763200759887695	-0.053175899505615236	1.0405	-0.0018118100166320801	-0.10808999633789063	0.90452001953125	-0.011982999801635742	-0.10075800323486328	0.925406982421875	-0.021671300888061525	-0.09253959655761719	0.9476010131835938	-0.03697800064086914	-0.07822689819335937	0.9826329956054688	0.000553637981414794	-0.07217680358886719	0.8793400268554687	-0.006663119792938233	-0.0683844985961914	0.9049990234375	-0.017203500747680664	-0.0637156982421875	0.933541015625	-0.0343661994934082	-0.054826099395751955	0.9714970092773437	0.003235640048980713	-0.03753379821777344	0.8770449829101562	-0.005201799869537353	-0.035456100463867185	0.902030029296875	-0.01635569953918457	-0.033763500213623045	0.9299299926757812	-0.02678940010070801	-0.03218939971923828	0.9690170288085938	0.011085399627685547	-6.507229804992601e-05	0.9059030151367188	-0.0009973819851875302	-0.00046550598740577705	0.9237069702148437	-0.012713600158691406	-0.002377880096435547	0.9418079833984375	-0.020523000717163085	-0.00935122013092041	0.9716630249023438	-0.05175590133666992	-0.01923460006713867	1.057489990234375
66	2.2	-0.019125900268554687	-0.13892599487304688	0.9979199829101563	-0.014725700378417968	-0.11180599975585938	1.0070800170898437	-0.02551219940185547	-0.09076090240478515	1.0289599609375	-0.027027000427246095	-0.053187000274658204	1.0401400146484374	-0.0017048100233078	-0.10732700347900391	0.9041320190429688	-0.012018699645996094	-0.10024400329589844	0.925052978515625	-0.02182080078125	-0.09221790313720703	0.9471799926757812	-0.037171798706054686	-0.0780863037109375	0.9820709838867188	0.0008869720101356501	-0.07146279907226563	0.8791680297851563	-0.006417520046234131	-0.06780439758300781	0.9048270263671875	-0.017164600372314452	-0.06335710144042969	0.9332540283203125	-0.03456829833984375	-0.05451060104370117	0.97127099609375	0.0034843199253082272	-0.03676250076293945	0.8768380126953125	-0.005001679897308349	-0.03486009979248047	0.901791015625	-0.01642959976196289	-0.033408199310302734	0.9293060302734375	-0.026903900146484375	-0.03199329948425293	0.9687379760742187	0.011191300392150879	0.00044779801368713304	0.9060130004882813	-0.0009613429903984071	-3.9381001144647e-05	0.9236060180664063	-0.012745599746704101	-0.0019961199760437013	0.9414140014648438	-0.020650400161743163	-0.009191860198974609	0.97131201171875	-0.05191210174560547	-0.0192273006439209	1.057219970703125
